%TF.GenerationSoftware,KiCad,Pcbnew,9.0.2*%
%TF.CreationDate,2026-06-06T16:42:24-04:00*%
%TF.ProjectId,blinky_badge,626c696e-6b79-45f6-9261-6467652e6b69,rev?*%
%TF.SameCoordinates,Original*%
%TF.FileFunction,Soldermask,Bot*%
%TF.FilePolarity,Negative*%
%FSLAX46Y46*%
G04 Gerber Fmt 4.6, Leading zero omitted, Abs format (unit mm)*
G04 Created by KiCad (PCBNEW 9.0.2) date 2026-06-06 16:42:24*
%MOMM*%
%LPD*%
G01*
G04 APERTURE LIST*
G04 Aperture macros list*
%AMRoundRect*
0 Rectangle with rounded corners*
0 $1 Rounding radius*
0 $2 $3 $4 $5 $6 $7 $8 $9 X,Y pos of 4 corners*
0 Add a 4 corners polygon primitive as box body*
4,1,4,$2,$3,$4,$5,$6,$7,$8,$9,$2,$3,0*
0 Add four circle primitives for the rounded corners*
1,1,$1+$1,$2,$3*
1,1,$1+$1,$4,$5*
1,1,$1+$1,$6,$7*
1,1,$1+$1,$8,$9*
0 Add four rect primitives between the rounded corners*
20,1,$1+$1,$2,$3,$4,$5,0*
20,1,$1+$1,$4,$5,$6,$7,0*
20,1,$1+$1,$6,$7,$8,$9,0*
20,1,$1+$1,$8,$9,$2,$3,0*%
G04 Aperture macros list end*
%ADD10R,1.800000X1.800000*%
%ADD11C,1.800000*%
%ADD12RoundRect,0.250000X0.550000X0.550000X-0.550000X0.550000X-0.550000X-0.550000X0.550000X-0.550000X0*%
%ADD13C,1.600000*%
%ADD14R,1.295400X1.295400*%
%ADD15C,1.295400*%
%ADD16R,1.700000X1.700000*%
%ADD17C,1.700000*%
%ADD18RoundRect,0.412500X0.412500X0.412500X-0.412500X0.412500X-0.412500X-0.412500X0.412500X-0.412500X0*%
%ADD19C,1.650000*%
%ADD20C,2.000000*%
G04 APERTURE END LIST*
D10*
%TO.C,D10*%
X87970000Y-53250000D03*
D11*
X90510000Y-53250000D03*
%TD*%
D10*
%TO.C,D8*%
X71190000Y-76360000D03*
D11*
X73730000Y-76360000D03*
%TD*%
D10*
%TO.C,D4*%
X80350000Y-80430000D03*
D11*
X77810000Y-80430000D03*
%TD*%
D10*
%TO.C,D5*%
X80550000Y-51410000D03*
D11*
X83090000Y-51410000D03*
%TD*%
D10*
%TO.C,D1*%
X94090000Y-58180000D03*
D11*
X96630000Y-58180000D03*
%TD*%
D10*
%TO.C,D2*%
X97340000Y-65910000D03*
D11*
X99880000Y-65910000D03*
%TD*%
D10*
%TO.C,D6*%
X93430000Y-73410000D03*
D11*
X95970000Y-73410000D03*
%TD*%
D10*
%TO.C,D7*%
X66970000Y-69100000D03*
D11*
X69510000Y-69100000D03*
%TD*%
D10*
%TO.C,D9*%
X73230000Y-54290000D03*
D11*
X75770000Y-54290000D03*
%TD*%
D10*
%TO.C,D3*%
X67940000Y-61050000D03*
D11*
X70480000Y-61050000D03*
%TD*%
D12*
%TO.C,U1*%
X130225000Y-75630000D03*
D13*
X130225000Y-78170000D03*
X130225000Y-80710000D03*
X130225000Y-83250000D03*
X122605000Y-83250000D03*
X122605000Y-80710000D03*
X122605000Y-78170000D03*
X122605000Y-75630000D03*
%TD*%
D12*
%TO.C,C1*%
X134065113Y-70790000D03*
D13*
X132065113Y-70790000D03*
%TD*%
D14*
%TO.C,U2*%
X102340000Y-94890000D03*
D15*
X99800000Y-94890000D03*
X97260000Y-94890000D03*
X94720000Y-94890000D03*
X92180000Y-94890000D03*
X89640000Y-94890000D03*
X87100000Y-94890000D03*
X84560000Y-94890000D03*
X84560000Y-87270000D03*
X87100000Y-87270000D03*
X89640000Y-87270000D03*
X92180000Y-87270000D03*
X94720000Y-87270000D03*
X97260000Y-87270000D03*
X99800000Y-87270000D03*
X102340000Y-87270000D03*
%TD*%
D13*
%TO.C,R2*%
X122280000Y-91870000D03*
X114660000Y-91870000D03*
%TD*%
%TO.C,R1*%
X119660000Y-58720000D03*
X112040000Y-58720000D03*
%TD*%
D16*
%TO.C,J2*%
X134310000Y-88020000D03*
%TD*%
%TO.C,J1*%
X134695000Y-94120000D03*
D17*
X137235000Y-94120000D03*
%TD*%
D18*
%TO.C,RV1*%
X115570000Y-77920000D03*
D19*
X113030000Y-77920000D03*
X110490000Y-77920000D03*
%TD*%
D20*
%TO.C,C2*%
X122050000Y-64280000D03*
X122050000Y-69280000D03*
%TD*%
M02*
