%TF.GenerationSoftware,KiCad,Pcbnew,9.0.2*%
%TF.CreationDate,2026-06-06T16:42:24-04:00*%
%TF.ProjectId,blinky_badge,626c696e-6b79-45f6-9261-6467652e6b69,rev?*%
%TF.SameCoordinates,Original*%
%TF.FileFunction,Profile,NP*%
%FSLAX46Y46*%
G04 Gerber Fmt 4.6, Leading zero omitted, Abs format (unit mm)*
G04 Created by KiCad (PCBNEW 9.0.2) date 2026-06-06 16:42:24*
%MOMM*%
%LPD*%
G01*
G04 APERTURE LIST*
%TA.AperFunction,Profile*%
%ADD10C,0.190000*%
%TD*%
G04 APERTURE END LIST*
D10*
X94557904Y-103955461D02*
X92181592Y-104121368D01*
X98943982Y-103527257D02*
X98588799Y-102247593D01*
X99751638Y-104677114D02*
X98943982Y-103527257D01*
X108828825Y-44203661D02*
X110734147Y-45331595D01*
X138641607Y-72297829D02*
X139415547Y-75252908D01*
X138280523Y-103444946D02*
X136741151Y-104115795D01*
X81766268Y-39284887D02*
X85263328Y-39307415D01*
X68139878Y-105578835D02*
X65684040Y-104550684D01*
X65684040Y-104550684D02*
X63505514Y-102973496D01*
X96676901Y-42334135D02*
X97274888Y-40306110D01*
X56402893Y-60064451D02*
X57782103Y-55598126D01*
X139415547Y-75252908D02*
X139681993Y-78362748D01*
X89813347Y-103854009D02*
X87500011Y-103088650D01*
X85263328Y-39307415D02*
X88615979Y-39670593D01*
X56578081Y-73805953D02*
X55803411Y-69372383D01*
X125063244Y-108920631D02*
X121482377Y-109097763D01*
X140567736Y-100782664D02*
X139548815Y-102299128D01*
X134875920Y-106303090D02*
X133318213Y-107139177D01*
X78262413Y-39665333D02*
X81766268Y-39284887D01*
X109993290Y-107991534D02*
X107668709Y-107327963D01*
X73424160Y-105952224D02*
X70758912Y-106041830D01*
X105846389Y-106557210D02*
X104633272Y-105721429D01*
X107212159Y-38083883D02*
X108088263Y-39726751D01*
X55740000Y-64720000D02*
X56402893Y-60064451D01*
X138527606Y-85207194D02*
X139966373Y-86185451D01*
X59850950Y-89278668D02*
X60857149Y-86206772D01*
X70758912Y-106041830D02*
X68139878Y-105578835D01*
X62599057Y-47853116D02*
X65090348Y-45501213D01*
X63505514Y-102973496D02*
X61709876Y-100890919D01*
X139548815Y-102299128D02*
X138280523Y-103444946D01*
X100868080Y-105584313D02*
X99751638Y-104677114D01*
X61709876Y-100890919D02*
X60388486Y-98372974D01*
X76021454Y-105352395D02*
X73424160Y-105952224D01*
X114634853Y-53155044D02*
X117899155Y-52947989D01*
X98169385Y-38610229D02*
X99295881Y-37280572D01*
X60857149Y-86206772D02*
X62382478Y-83405029D01*
X132816980Y-64320545D02*
X134535026Y-65713419D01*
X108651089Y-41774792D02*
X108828825Y-44203661D01*
X113413503Y-48335188D02*
X114286077Y-50572014D01*
X139681993Y-78362748D02*
X139398464Y-81645965D01*
X141658286Y-98028977D02*
X140567736Y-100782664D01*
X131411431Y-107819494D02*
X128424551Y-108496680D01*
X59428748Y-92436059D02*
X59850950Y-89278668D01*
X113502848Y-108633451D02*
X109993290Y-107991534D01*
X104633272Y-105721429D02*
X103764831Y-106153747D01*
X134535026Y-65713419D02*
X136085738Y-67485178D01*
X142237169Y-94978039D02*
X141658286Y-98028977D01*
X87500011Y-103088650D02*
X85486305Y-101770516D01*
X85486305Y-101770516D02*
X83864003Y-99806720D01*
X91823447Y-40348523D02*
X94563163Y-41260257D01*
X112262373Y-46708771D02*
X113413503Y-48335188D01*
X131000627Y-63397549D02*
X132816980Y-64320545D01*
X60567818Y-81753527D02*
X58945514Y-79532097D01*
X121482377Y-109097763D02*
X117411461Y-109010302D01*
X88615979Y-39670593D02*
X91823447Y-40348523D01*
X141026530Y-87508190D02*
X141751292Y-89115844D01*
X67956908Y-43492774D02*
X71213689Y-41833252D01*
X97274888Y-40306110D02*
X98169385Y-38610229D01*
X136032503Y-105300367D02*
X134875920Y-106303090D01*
X136741151Y-104115795D02*
X136032503Y-105300367D01*
X124825862Y-56095040D02*
X126223740Y-58190960D01*
X136085738Y-67485178D02*
X137411962Y-69547787D01*
X102807407Y-106243260D02*
X101821617Y-106037579D01*
X74889380Y-40511077D02*
X78262413Y-39665333D01*
X57596017Y-76847666D02*
X56578081Y-73805953D01*
X83864003Y-99806720D02*
X81858940Y-101918572D01*
X79198080Y-103890337D02*
X76021454Y-105352395D01*
X60388486Y-98372974D02*
X59612811Y-95514912D01*
X137411962Y-69547787D02*
X138641607Y-72297829D01*
X110734147Y-45331595D02*
X112262373Y-46708771D01*
X71213689Y-41833252D02*
X74889380Y-40511077D01*
X129168552Y-63031495D02*
X131000627Y-63397549D01*
X127418567Y-63298643D02*
X129168552Y-63031495D01*
X142286355Y-91919003D02*
X142237169Y-94978039D01*
X126223740Y-58190960D02*
X127088852Y-60628109D01*
X62382478Y-83405029D02*
X60567818Y-81753527D01*
X100589059Y-36344727D02*
X101982785Y-35823791D01*
X122996947Y-54511784D02*
X124825862Y-56095040D01*
X55803411Y-69372383D02*
X55740000Y-64720000D01*
X81858940Y-101918572D02*
X79198080Y-103890337D01*
X128424551Y-108496680D02*
X125063244Y-108920631D01*
X96763828Y-103344739D02*
X94557904Y-103955461D01*
X59855061Y-51484606D02*
X62599057Y-47853116D01*
X103410118Y-35732370D02*
X104803304Y-36078578D01*
X103764831Y-106153747D02*
X102807407Y-106243260D01*
X106093776Y-36864039D02*
X107212159Y-38083883D01*
X108088263Y-39726751D02*
X108651089Y-41774792D01*
X65090348Y-45501213D02*
X67956908Y-43492774D01*
X92181592Y-104121368D02*
X89813347Y-103854009D01*
X94563163Y-41260257D02*
X96676901Y-42334135D01*
X59612811Y-95514912D02*
X59428748Y-92436059D01*
X104803304Y-36078578D02*
X106093776Y-36864039D01*
X107668709Y-107327963D02*
X105846389Y-106557210D01*
X58945514Y-79532097D02*
X57596017Y-76847666D01*
X101821617Y-106037579D02*
X100868080Y-105584313D01*
X117899155Y-52947989D02*
X120687282Y-53431501D01*
X139398464Y-81645965D02*
X138527606Y-85207194D01*
X127088852Y-60628109D02*
X127418567Y-63298643D01*
X114286077Y-50572014D02*
X114634853Y-53155044D01*
X120687282Y-53431501D02*
X122996947Y-54511784D01*
X57782103Y-55598126D02*
X59855061Y-51484606D01*
X101982785Y-35823791D02*
X103410118Y-35732370D01*
X141751292Y-89115844D02*
X142286355Y-91919003D01*
X98588799Y-102247593D02*
X96763828Y-103344739D01*
X139966373Y-86185451D02*
X141026530Y-87508190D01*
X99295881Y-37280572D02*
X100589059Y-36344727D01*
X133318213Y-107139177D02*
X131411431Y-107819494D01*
X117411461Y-109010302D02*
X113502848Y-108633451D01*
M02*
