M48
; DRILL file {KiCad 9.0.2} date 2026-06-06T16:42:47-0400
; FORMAT={-:-/ absolute / metric / decimal}
; #@! TF.CreationDate,2026-06-06T16:42:47-04:00
; #@! TF.GenerationSoftware,Kicad,Pcbnew,9.0.2
; #@! TF.FileFunction,Plated,1,2,PTH
FMAT,2
METRIC
; #@! TA.AperFunction,Plated,PTH,ViaDrill
T1C0.300
; #@! TA.AperFunction,Plated,PTH,ComponentDrill
T2C0.787
; #@! TA.AperFunction,Plated,PTH,ComponentDrill
T3C0.800
; #@! TA.AperFunction,Plated,PTH,ComponentDrill
T4C0.850
; #@! TA.AperFunction,Plated,PTH,ComponentDrill
T5C0.900
; #@! TA.AperFunction,Plated,PTH,ComponentDrill
T6C1.000
%
G90
G05
T1
X104.259Y-85.729
T2
X84.56Y-87.27
X84.56Y-94.89
X87.1Y-87.27
X87.1Y-94.89
X89.64Y-87.27
X89.64Y-94.89
X92.18Y-87.27
X92.18Y-94.89
X94.72Y-87.27
X94.72Y-94.89
X97.26Y-87.27
X97.26Y-94.89
X99.8Y-87.27
X99.8Y-94.89
X102.34Y-87.27
X102.34Y-94.89
T3
X112.04Y-58.72
X114.66Y-91.87
X119.66Y-58.72
X122.28Y-91.87
X122.605Y-75.63
X122.605Y-78.17
X122.605Y-80.71
X122.605Y-83.25
X130.225Y-75.63
X130.225Y-78.17
X130.225Y-80.71
X130.225Y-83.25
X132.065Y-70.79
X134.065Y-70.79
T4
X110.49Y-77.92
X113.03Y-77.92
X115.57Y-77.92
T5
X66.97Y-69.1
X67.94Y-61.05
X69.51Y-69.1
X70.48Y-61.05
X71.19Y-76.36
X73.23Y-54.29
X73.73Y-76.36
X75.77Y-54.29
X77.81Y-80.43
X80.35Y-80.43
X80.55Y-51.41
X83.09Y-51.41
X87.97Y-53.25
X90.51Y-53.25
X93.43Y-73.41
X94.09Y-58.18
X95.97Y-73.41
X96.63Y-58.18
X97.34Y-65.91
X99.88Y-65.91
T6
X122.05Y-64.28
X122.05Y-69.28
X134.31Y-88.02
X134.695Y-94.12
X137.235Y-94.12
M30
