%TF.GenerationSoftware,KiCad,Pcbnew,9.0.2*%
%TF.CreationDate,2026-06-06T16:42:24-04:00*%
%TF.ProjectId,blinky_badge,626c696e-6b79-45f6-9261-6467652e6b69,rev?*%
%TF.SameCoordinates,Original*%
%TF.FileFunction,Copper,L1,Top*%
%TF.FilePolarity,Positive*%
%FSLAX46Y46*%
G04 Gerber Fmt 4.6, Leading zero omitted, Abs format (unit mm)*
G04 Created by KiCad (PCBNEW 9.0.2) date 2026-06-06 16:42:24*
%MOMM*%
%LPD*%
G01*
G04 APERTURE LIST*
G04 Aperture macros list*
%AMRoundRect*
0 Rectangle with rounded corners*
0 $1 Rounding radius*
0 $2 $3 $4 $5 $6 $7 $8 $9 X,Y pos of 4 corners*
0 Add a 4 corners polygon primitive as box body*
4,1,4,$2,$3,$4,$5,$6,$7,$8,$9,$2,$3,0*
0 Add four circle primitives for the rounded corners*
1,1,$1+$1,$2,$3*
1,1,$1+$1,$4,$5*
1,1,$1+$1,$6,$7*
1,1,$1+$1,$8,$9*
0 Add four rect primitives between the rounded corners*
20,1,$1+$1,$2,$3,$4,$5,0*
20,1,$1+$1,$4,$5,$6,$7,0*
20,1,$1+$1,$6,$7,$8,$9,0*
20,1,$1+$1,$8,$9,$2,$3,0*%
G04 Aperture macros list end*
%TA.AperFunction,ComponentPad*%
%ADD10R,1.800000X1.800000*%
%TD*%
%TA.AperFunction,ComponentPad*%
%ADD11C,1.800000*%
%TD*%
%TA.AperFunction,ComponentPad*%
%ADD12RoundRect,0.250000X0.550000X0.550000X-0.550000X0.550000X-0.550000X-0.550000X0.550000X-0.550000X0*%
%TD*%
%TA.AperFunction,ComponentPad*%
%ADD13C,1.600000*%
%TD*%
%TA.AperFunction,ComponentPad*%
%ADD14R,1.295400X1.295400*%
%TD*%
%TA.AperFunction,ComponentPad*%
%ADD15C,1.295400*%
%TD*%
%TA.AperFunction,ComponentPad*%
%ADD16R,1.700000X1.700000*%
%TD*%
%TA.AperFunction,ComponentPad*%
%ADD17C,1.700000*%
%TD*%
%TA.AperFunction,ComponentPad*%
%ADD18RoundRect,0.412500X0.412500X0.412500X-0.412500X0.412500X-0.412500X-0.412500X0.412500X-0.412500X0*%
%TD*%
%TA.AperFunction,ComponentPad*%
%ADD19C,1.650000*%
%TD*%
%TA.AperFunction,ComponentPad*%
%ADD20C,2.000000*%
%TD*%
%TA.AperFunction,ViaPad*%
%ADD21C,0.600000*%
%TD*%
%TA.AperFunction,Conductor*%
%ADD22C,0.200000*%
%TD*%
G04 APERTURE END LIST*
D10*
%TO.P,D10,1,K*%
%TO.N,Net-(D1-K)*%
X87970000Y-53250000D03*
D11*
%TO.P,D10,2,A*%
%TO.N,Net-(D10-A)*%
X90510000Y-53250000D03*
%TD*%
D10*
%TO.P,D8,1,K*%
%TO.N,Net-(D1-K)*%
X71190000Y-76360000D03*
D11*
%TO.P,D8,2,A*%
%TO.N,Net-(D8-A)*%
X73730000Y-76360000D03*
%TD*%
D10*
%TO.P,D4,1,K*%
%TO.N,Net-(D1-K)*%
X80350000Y-80430000D03*
D11*
%TO.P,D4,2,A*%
%TO.N,Net-(D4-A)*%
X77810000Y-80430000D03*
%TD*%
D10*
%TO.P,D5,1,K*%
%TO.N,Net-(D1-K)*%
X80550000Y-51410000D03*
D11*
%TO.P,D5,2,A*%
%TO.N,Net-(D5-A)*%
X83090000Y-51410000D03*
%TD*%
D10*
%TO.P,D1,1,K*%
%TO.N,Net-(D1-K)*%
X94090000Y-58180000D03*
D11*
%TO.P,D1,2,A*%
%TO.N,Net-(D1-A)*%
X96630000Y-58180000D03*
%TD*%
D10*
%TO.P,D2,1,K*%
%TO.N,Net-(D1-K)*%
X97340000Y-65910000D03*
D11*
%TO.P,D2,2,A*%
%TO.N,Net-(D2-A)*%
X99880000Y-65910000D03*
%TD*%
D10*
%TO.P,D6,1,K*%
%TO.N,Net-(D1-K)*%
X93430000Y-73410000D03*
D11*
%TO.P,D6,2,A*%
%TO.N,Net-(D6-A)*%
X95970000Y-73410000D03*
%TD*%
D10*
%TO.P,D7,1,K*%
%TO.N,Net-(D1-K)*%
X66970000Y-69100000D03*
D11*
%TO.P,D7,2,A*%
%TO.N,Net-(D7-A)*%
X69510000Y-69100000D03*
%TD*%
D10*
%TO.P,D9,1,K*%
%TO.N,Net-(D1-K)*%
X73230000Y-54290000D03*
D11*
%TO.P,D9,2,A*%
%TO.N,Net-(D9-A)*%
X75770000Y-54290000D03*
%TD*%
D10*
%TO.P,D3,1,K*%
%TO.N,Net-(D1-K)*%
X67940000Y-61050000D03*
D11*
%TO.P,D3,2,A*%
%TO.N,Net-(D3-A)*%
X70480000Y-61050000D03*
%TD*%
D12*
%TO.P,U1,1,GND*%
%TO.N,GND*%
X130225000Y-75630000D03*
D13*
%TO.P,U1,2,TR*%
%TO.N,TR*%
X130225000Y-78170000D03*
%TO.P,U1,3,Q*%
%TO.N,OUT*%
X130225000Y-80710000D03*
%TO.P,U1,4,R*%
%TO.N,+5V*%
X130225000Y-83250000D03*
%TO.P,U1,5,CV*%
%TO.N,Net-(U1-CV)*%
X122605000Y-83250000D03*
%TO.P,U1,6,THR*%
%TO.N,TR*%
X122605000Y-80710000D03*
%TO.P,U1,7,DIS*%
%TO.N,Net-(U1-DIS)*%
X122605000Y-78170000D03*
%TO.P,U1,8,VCC*%
%TO.N,+5V*%
X122605000Y-75630000D03*
%TD*%
D12*
%TO.P,C1,1*%
%TO.N,TR*%
X134065113Y-70790000D03*
D13*
%TO.P,C1,2*%
%TO.N,GND*%
X132065113Y-70790000D03*
%TD*%
D14*
%TO.P,U2,1,Q5*%
%TO.N,Net-(D6-A)*%
X102340000Y-94890000D03*
D15*
%TO.P,U2,2,Q1*%
%TO.N,Net-(D2-A)*%
X99800000Y-94890000D03*
%TO.P,U2,3,Q0*%
%TO.N,Net-(D1-A)*%
X97260000Y-94890000D03*
%TO.P,U2,4,Q2*%
%TO.N,Net-(D3-A)*%
X94720000Y-94890000D03*
%TO.P,U2,5,Q6*%
%TO.N,Net-(D7-A)*%
X92180000Y-94890000D03*
%TO.P,U2,6,Q7*%
%TO.N,Net-(D8-A)*%
X89640000Y-94890000D03*
%TO.P,U2,7,Q3*%
%TO.N,Net-(D4-A)*%
X87100000Y-94890000D03*
%TO.P,U2,8,VSS*%
%TO.N,GND*%
X84560000Y-94890000D03*
%TO.P,U2,9,Q8*%
%TO.N,Net-(D9-A)*%
X84560000Y-87270000D03*
%TO.P,U2,10,Q4*%
%TO.N,Net-(D5-A)*%
X87100000Y-87270000D03*
%TO.P,U2,11,Q9*%
%TO.N,Net-(D10-A)*%
X89640000Y-87270000D03*
%TO.P,U2,12,Cout*%
%TO.N,unconnected-(U2-Cout-Pad12)*%
X92180000Y-87270000D03*
%TO.P,U2,13,CKEN*%
%TO.N,GND*%
X94720000Y-87270000D03*
%TO.P,U2,14,CLK*%
%TO.N,OUT*%
X97260000Y-87270000D03*
%TO.P,U2,15,Reset*%
%TO.N,GND*%
X99800000Y-87270000D03*
%TO.P,U2,16,VDD*%
%TO.N,+5V*%
X102340000Y-87270000D03*
%TD*%
D13*
%TO.P,R2,1*%
%TO.N,Net-(U1-DIS)*%
X122280000Y-91870000D03*
%TO.P,R2,2*%
%TO.N,+5V*%
X114660000Y-91870000D03*
%TD*%
%TO.P,R1,1*%
%TO.N,GND*%
X119660000Y-58720000D03*
%TO.P,R1,2*%
%TO.N,Net-(D1-K)*%
X112040000Y-58720000D03*
%TD*%
D16*
%TO.P,J2,1,Pin_1*%
%TO.N,OUT*%
X134310000Y-88020000D03*
%TD*%
%TO.P,J1,1,Pin_1*%
%TO.N,+5V*%
X134695000Y-94120000D03*
D17*
%TO.P,J1,2,Pin_2*%
%TO.N,GND*%
X137235000Y-94120000D03*
%TD*%
D18*
%TO.P,RV1,1,1*%
%TO.N,Net-(U1-DIS)*%
X115570000Y-77920000D03*
D19*
%TO.P,RV1,2,2*%
X113030000Y-77920000D03*
%TO.P,RV1,3,3*%
%TO.N,TR*%
X110490000Y-77920000D03*
%TD*%
D20*
%TO.P,C2,1*%
%TO.N,GND*%
X122050000Y-64280000D03*
%TO.P,C2,2*%
%TO.N,Net-(U1-CV)*%
X122050000Y-69280000D03*
%TD*%
D21*
%TO.N,OUT*%
X104259265Y-85729265D03*
%TD*%
D22*
%TO.N,TR*%
X134065113Y-74329887D02*
X134065113Y-70790000D01*
X110490000Y-77920000D02*
X110490000Y-79660000D01*
X129015000Y-79380000D02*
X130225000Y-78170000D01*
X130225000Y-78170000D02*
X134065113Y-74329887D01*
X110490000Y-79660000D02*
X112930000Y-82100000D01*
X121215000Y-82100000D02*
X122605000Y-80710000D01*
X112930000Y-82100000D02*
X121215000Y-82100000D01*
X122605000Y-80710000D02*
X123935000Y-79380000D01*
X123935000Y-79380000D02*
X129015000Y-79380000D01*
%TO.N,GND*%
X126790000Y-64280000D02*
X132065113Y-69555113D01*
X84200000Y-96320000D02*
X84560000Y-95960000D01*
X83400000Y-85630000D02*
X82840000Y-86190000D01*
X94720000Y-87270000D02*
X94720000Y-86240000D01*
X99800000Y-86150000D02*
X100280000Y-85670000D01*
X94720000Y-86170000D02*
X94720000Y-86240000D01*
X119660000Y-58720000D02*
X122050000Y-61110000D01*
X122050000Y-61110000D02*
X122050000Y-64280000D01*
X103450000Y-85670000D02*
X103460000Y-85680000D01*
X103460000Y-85680000D02*
X103900000Y-85240000D01*
X99800000Y-86150000D02*
X99330000Y-85680000D01*
X94720000Y-86240000D02*
X94110000Y-85630000D01*
X94110000Y-85630000D02*
X83400000Y-85630000D01*
X103900000Y-75760000D02*
X115380000Y-64280000D01*
X132065113Y-69555113D02*
X132065113Y-70790000D01*
X103900000Y-85240000D02*
X103900000Y-75760000D01*
X132065113Y-73789887D02*
X130225000Y-75630000D01*
X84560000Y-95960000D02*
X84560000Y-94890000D01*
X82840000Y-95960000D02*
X83200000Y-96320000D01*
X99800000Y-87270000D02*
X99800000Y-86150000D01*
X95210000Y-85680000D02*
X94720000Y-86170000D01*
X115380000Y-64280000D02*
X122050000Y-64280000D01*
X132065113Y-70790000D02*
X132065113Y-73789887D01*
X83200000Y-96320000D02*
X84200000Y-96320000D01*
X99330000Y-85680000D02*
X95210000Y-85680000D01*
X100280000Y-85670000D02*
X103450000Y-85670000D01*
X122050000Y-64280000D02*
X126790000Y-64280000D01*
X82840000Y-86190000D02*
X82840000Y-95960000D01*
%TO.N,Net-(U1-CV)*%
X105210000Y-76030000D02*
X105210000Y-84650000D01*
X111960000Y-69280000D02*
X105210000Y-76030000D01*
X116290000Y-88650000D02*
X121690000Y-83250000D01*
X105210000Y-84650000D02*
X109210000Y-88650000D01*
X109210000Y-88650000D02*
X116290000Y-88650000D01*
X121690000Y-83250000D02*
X122600000Y-83250000D01*
X122050000Y-69280000D02*
X111960000Y-69280000D01*
%TO.N,Net-(D1-K)*%
X70200000Y-76360000D02*
X66970000Y-73130000D01*
X66500000Y-62490000D02*
X67940000Y-61050000D01*
X80550000Y-51840000D02*
X81960000Y-53250000D01*
X75600000Y-51410000D02*
X80550000Y-51410000D01*
X75810000Y-83770000D02*
X71190000Y-79150000D01*
X100530000Y-59280000D02*
X101090000Y-58720000D01*
X97340000Y-62490000D02*
X100530000Y-59300000D01*
X97340000Y-62490000D02*
X97340000Y-65910000D01*
X80550000Y-51410000D02*
X80550000Y-51840000D01*
X80350000Y-83130000D02*
X79710000Y-83770000D01*
X100530000Y-59300000D02*
X100530000Y-59280000D01*
X94090000Y-58180000D02*
X94090000Y-59930000D01*
X95720000Y-65910000D02*
X93430000Y-68200000D01*
X93970000Y-58060000D02*
X94090000Y-58180000D01*
X71190000Y-79150000D02*
X71190000Y-76360000D01*
X96650000Y-62490000D02*
X97340000Y-62490000D01*
X87970000Y-54570000D02*
X91460000Y-58060000D01*
X66970000Y-66650000D02*
X66500000Y-66180000D01*
X81960000Y-53250000D02*
X87970000Y-53250000D01*
X71190000Y-76360000D02*
X70200000Y-76360000D01*
X67940000Y-61050000D02*
X67940000Y-57460000D01*
X66970000Y-69100000D02*
X66970000Y-66650000D01*
X67940000Y-57460000D02*
X71110000Y-54290000D01*
X91460000Y-58060000D02*
X93970000Y-58060000D01*
X73230000Y-53780000D02*
X75600000Y-51410000D01*
X66970000Y-73130000D02*
X66970000Y-69100000D01*
X94090000Y-59930000D02*
X96650000Y-62490000D01*
X71110000Y-54290000D02*
X73230000Y-54290000D01*
X93430000Y-68200000D02*
X93430000Y-73410000D01*
X79710000Y-83770000D02*
X75810000Y-83770000D01*
X73230000Y-54290000D02*
X73230000Y-53780000D01*
X66500000Y-66180000D02*
X66500000Y-62490000D01*
X80350000Y-80430000D02*
X80350000Y-83130000D01*
X87970000Y-53250000D02*
X87970000Y-54570000D01*
X97340000Y-65910000D02*
X95720000Y-65910000D01*
X101090000Y-58720000D02*
X112040000Y-58720000D01*
%TO.N,+5V*%
X118490000Y-91870000D02*
X128020000Y-82340000D01*
X130225000Y-83250000D02*
X132170000Y-85195000D01*
X128020000Y-82340000D02*
X129315000Y-82340000D01*
X129315000Y-82340000D02*
X130225000Y-83250000D01*
X114660000Y-91870000D02*
X118490000Y-91870000D01*
X104180000Y-87270000D02*
X108780000Y-91870000D01*
X102340000Y-87270000D02*
X104180000Y-87270000D01*
X108780000Y-91870000D02*
X114660000Y-91870000D01*
X132170000Y-91595000D02*
X134695000Y-94120000D01*
X132170000Y-85195000D02*
X132170000Y-91595000D01*
%TO.N,OUT*%
X127770000Y-80710000D02*
X130225000Y-80710000D01*
X134310000Y-82040000D02*
X132980000Y-80710000D01*
X104259265Y-85729265D02*
X108810000Y-90280000D01*
X134310000Y-88020000D02*
X134310000Y-82040000D01*
X118200000Y-90280000D02*
X127770000Y-80710000D01*
X108810000Y-90280000D02*
X118200000Y-90280000D01*
X132980000Y-80710000D02*
X130225000Y-80710000D01*
%TD*%
M02*
